<mxfile host="app.diagrams.net" modified="2021-10-11T16:39:17.956Z" agent="5.0 (Macintosh; Intel Mac OS X 10_15_7) AppleWebKit/537.36 (KHTML, like Gecko) Chrome/94.0.4606.71 Safari/537.36" etag="kMFHO4EzVLj5MCbmkxIp" version="15.4.2" type="github">
  <diagram id="C5RBs43oDa-KdzZeNtuy" name="Page-1">
    <mxGraphModel dx="1007" dy="1099" grid="1" gridSize="10" guides="1" tooltips="1" connect="1" arrows="1" fold="1" page="1" pageScale="1" pageWidth="827" pageHeight="1169" math="0" shadow="0">
      <root>
        <mxCell id="WIyWlLk6GJQsqaUBKTNV-0" />
        <mxCell id="WIyWlLk6GJQsqaUBKTNV-1" parent="WIyWlLk6GJQsqaUBKTNV-0" />
        <mxCell id="wrmkeq0CH1wcc1o3O_WX-75" value="" style="edgeStyle=orthogonalEdgeStyle;rounded=0;orthogonalLoop=1;jettySize=auto;html=1;" parent="WIyWlLk6GJQsqaUBKTNV-1" source="wrmkeq0CH1wcc1o3O_WX-0" target="wrmkeq0CH1wcc1o3O_WX-74" edge="1">
          <mxGeometry relative="1" as="geometry" />
        </mxCell>
        <mxCell id="wrmkeq0CH1wcc1o3O_WX-0" value="프로그램 실행" style="ellipse;whiteSpace=wrap;html=1;" parent="WIyWlLk6GJQsqaUBKTNV-1" vertex="1">
          <mxGeometry x="189" y="39" width="160" height="30" as="geometry" />
        </mxCell>
        <mxCell id="wrmkeq0CH1wcc1o3O_WX-3" value="&lt;font style=&quot;font-size: 12px&quot;&gt;case input이 &lt;br&gt;0~3이 아님&lt;br&gt;&lt;/font&gt;" style="rhombus;whiteSpace=wrap;html=1;" parent="WIyWlLk6GJQsqaUBKTNV-1" vertex="1">
          <mxGeometry x="189" y="248" width="160" height="50" as="geometry" />
        </mxCell>
        <mxCell id="wrmkeq0CH1wcc1o3O_WX-5" value="" style="endArrow=classic;html=1;" parent="WIyWlLk6GJQsqaUBKTNV-1" edge="1">
          <mxGeometry width="50" height="50" relative="1" as="geometry">
            <mxPoint x="188" y="273.5" as="sourcePoint" />
            <mxPoint x="269" y="80" as="targetPoint" />
            <Array as="points">
              <mxPoint x="149" y="274" />
              <mxPoint x="150" y="80" />
            </Array>
          </mxGeometry>
        </mxCell>
        <mxCell id="wrmkeq0CH1wcc1o3O_WX-12" value="" style="endArrow=classic;html=1;exitX=0.5;exitY=1;exitDx=0;exitDy=0;entryX=0;entryY=0.5;entryDx=0;entryDy=0;" parent="WIyWlLk6GJQsqaUBKTNV-1" source="wrmkeq0CH1wcc1o3O_WX-3" target="wrmkeq0CH1wcc1o3O_WX-44" edge="1">
          <mxGeometry width="50" height="50" relative="1" as="geometry">
            <mxPoint x="549" y="228" as="sourcePoint" />
            <mxPoint x="549" y="255" as="targetPoint" />
            <Array as="points">
              <mxPoint x="269" y="312" />
            </Array>
          </mxGeometry>
        </mxCell>
        <mxCell id="wrmkeq0CH1wcc1o3O_WX-13" value="" style="endArrow=classic;html=1;exitX=0.5;exitY=1;exitDx=0;exitDy=0;entryX=0.5;entryY=0;entryDx=0;entryDy=0;" parent="WIyWlLk6GJQsqaUBKTNV-1" edge="1">
          <mxGeometry width="50" height="50" relative="1" as="geometry">
            <mxPoint x="388.9999999999998" y="336" as="sourcePoint" />
            <mxPoint x="389" y="369" as="targetPoint" />
            <Array as="points" />
          </mxGeometry>
        </mxCell>
        <mxCell id="wrmkeq0CH1wcc1o3O_WX-27" value="No" style="text;html=1;strokeColor=none;fillColor=none;align=center;verticalAlign=middle;whiteSpace=wrap;rounded=0;" parent="WIyWlLk6GJQsqaUBKTNV-1" vertex="1">
          <mxGeometry x="159" y="278" width="40" height="20" as="geometry" />
        </mxCell>
        <mxCell id="wrmkeq0CH1wcc1o3O_WX-34" value="Yes" style="text;html=1;strokeColor=none;fillColor=none;align=center;verticalAlign=middle;whiteSpace=wrap;rounded=0;" parent="WIyWlLk6GJQsqaUBKTNV-1" vertex="1">
          <mxGeometry x="259" y="317" width="40" height="20" as="geometry" />
        </mxCell>
        <mxCell id="wrmkeq0CH1wcc1o3O_WX-35" value="Yes" style="text;html=1;strokeColor=none;fillColor=none;align=center;verticalAlign=middle;whiteSpace=wrap;rounded=0;" parent="WIyWlLk6GJQsqaUBKTNV-1" vertex="1">
          <mxGeometry x="459" y="288" width="40" height="20" as="geometry" />
        </mxCell>
        <mxCell id="wrmkeq0CH1wcc1o3O_WX-44" value="case input = 0" style="rhombus;whiteSpace=wrap;html=1;" parent="WIyWlLk6GJQsqaUBKTNV-1" vertex="1">
          <mxGeometry x="309" y="287" width="160" height="50" as="geometry" />
        </mxCell>
        <mxCell id="wrmkeq0CH1wcc1o3O_WX-49" value="No" style="text;html=1;strokeColor=none;fillColor=none;align=center;verticalAlign=middle;whiteSpace=wrap;rounded=0;" parent="WIyWlLk6GJQsqaUBKTNV-1" vertex="1">
          <mxGeometry x="390" y="337" width="40" height="20" as="geometry" />
        </mxCell>
        <mxCell id="wrmkeq0CH1wcc1o3O_WX-50" value="" style="endArrow=classic;html=1;exitX=1;exitY=0.5;exitDx=0;exitDy=0;entryX=0;entryY=0.5;entryDx=0;entryDy=0;" parent="WIyWlLk6GJQsqaUBKTNV-1" target="wrmkeq0CH1wcc1o3O_WX-53" edge="1">
          <mxGeometry width="50" height="50" relative="1" as="geometry">
            <mxPoint x="469" y="312" as="sourcePoint" />
            <mxPoint x="699" y="312" as="targetPoint" />
            <Array as="points">
              <mxPoint x="509" y="312" />
            </Array>
          </mxGeometry>
        </mxCell>
        <mxCell id="wrmkeq0CH1wcc1o3O_WX-53" value="프로그램 종료" style="ellipse;whiteSpace=wrap;html=1;" parent="WIyWlLk6GJQsqaUBKTNV-1" vertex="1">
          <mxGeometry x="544" y="297" width="160" height="30" as="geometry" />
        </mxCell>
        <mxCell id="9fOu5umkdslqVChfXTIq-0" value="" style="edgeStyle=orthogonalEdgeStyle;rounded=0;orthogonalLoop=1;jettySize=auto;html=1;" parent="WIyWlLk6GJQsqaUBKTNV-1" edge="1">
          <mxGeometry relative="1" as="geometry">
            <mxPoint x="390" y="579" as="sourcePoint" />
            <mxPoint x="390.5" y="603" as="targetPoint" />
          </mxGeometry>
        </mxCell>
        <mxCell id="wrmkeq0CH1wcc1o3O_WX-60" value="" style="endArrow=classic;html=1;exitX=0;exitY=0.5;exitDx=0;exitDy=0;" parent="WIyWlLk6GJQsqaUBKTNV-1" source="rJDsSHnZVofqD30iJjr4-2" edge="1">
          <mxGeometry width="50" height="50" relative="1" as="geometry">
            <mxPoint x="280.5" y="633" as="sourcePoint" />
            <mxPoint x="269" y="80" as="targetPoint" />
            <Array as="points">
              <mxPoint x="40" y="713" />
              <mxPoint x="40" y="388" />
              <mxPoint x="40" y="80" />
              <mxPoint x="180" y="80" />
            </Array>
          </mxGeometry>
        </mxCell>
        <mxCell id="wrmkeq0CH1wcc1o3O_WX-63" value="Yes" style="text;html=1;strokeColor=none;fillColor=none;align=center;verticalAlign=middle;whiteSpace=wrap;rounded=0;" parent="WIyWlLk6GJQsqaUBKTNV-1" vertex="1">
          <mxGeometry x="249" y="718" width="40" height="21" as="geometry" />
        </mxCell>
        <mxCell id="9fOu5umkdslqVChfXTIq-42" value="" style="edgeStyle=orthogonalEdgeStyle;rounded=0;orthogonalLoop=1;jettySize=auto;html=1;entryX=0.493;entryY=-0.006;entryDx=0;entryDy=0;entryPerimeter=0;" parent="WIyWlLk6GJQsqaUBKTNV-1" edge="1">
          <mxGeometry relative="1" as="geometry">
            <mxPoint x="389" y="459" as="sourcePoint" />
            <mxPoint x="388.8800000000001" y="489.29600000000005" as="targetPoint" />
          </mxGeometry>
        </mxCell>
        <mxCell id="9fOu5umkdslqVChfXTIq-39" value="" style="edgeStyle=orthogonalEdgeStyle;rounded=0;orthogonalLoop=1;jettySize=auto;html=1;" parent="WIyWlLk6GJQsqaUBKTNV-1" source="wrmkeq0CH1wcc1o3O_WX-74" target="9fOu5umkdslqVChfXTIq-10" edge="1">
          <mxGeometry relative="1" as="geometry" />
        </mxCell>
        <mxCell id="wrmkeq0CH1wcc1o3O_WX-74" value="사용자 메뉴 출력" style="shape=parallelogram;perimeter=parallelogramPerimeter;whiteSpace=wrap;html=1;fixedSize=1;" parent="WIyWlLk6GJQsqaUBKTNV-1" vertex="1">
          <mxGeometry x="189" y="99" width="160" height="30" as="geometry" />
        </mxCell>
        <mxCell id="wrmkeq0CH1wcc1o3O_WX-92" value="" style="endArrow=classic;html=1;exitX=1;exitY=0.5;exitDx=0;exitDy=0;" parent="WIyWlLk6GJQsqaUBKTNV-1" source="2BvWaV861vkguKEK1as5-0" edge="1">
          <mxGeometry width="50" height="50" relative="1" as="geometry">
            <mxPoint x="465" y="855.5" as="sourcePoint" />
            <mxPoint x="705" y="312" as="targetPoint" />
            <Array as="points">
              <mxPoint x="745" y="856" />
              <mxPoint x="745" y="580" />
              <mxPoint x="745" y="312" />
            </Array>
          </mxGeometry>
        </mxCell>
        <mxCell id="wrmkeq0CH1wcc1o3O_WX-94" value="" style="endArrow=classic;html=1;exitX=0.488;exitY=0.996;exitDx=0;exitDy=0;entryX=1;entryY=0.5;entryDx=0;entryDy=0;exitPerimeter=0;" parent="WIyWlLk6GJQsqaUBKTNV-1" source="9fOu5umkdslqVChfXTIq-30" target="rJDsSHnZVofqD30iJjr4-2" edge="1">
          <mxGeometry width="50" height="50" relative="1" as="geometry">
            <mxPoint x="657.9999999999995" y="631" as="sourcePoint" />
            <mxPoint x="444" y="698" as="targetPoint" />
            <Array as="points">
              <mxPoint x="603" y="713" />
            </Array>
          </mxGeometry>
        </mxCell>
        <mxCell id="wrmkeq0CH1wcc1o3O_WX-98" value="" style="endArrow=classic;html=1;exitX=0.5;exitY=1;exitDx=0;exitDy=0;entryX=0.5;entryY=0;entryDx=0;entryDy=0;" parent="WIyWlLk6GJQsqaUBKTNV-1" edge="1">
          <mxGeometry width="50" height="50" relative="1" as="geometry">
            <mxPoint x="389" y="399" as="sourcePoint" />
            <mxPoint x="389" y="429" as="targetPoint" />
            <Array as="points" />
          </mxGeometry>
        </mxCell>
        <mxCell id="wrmkeq0CH1wcc1o3O_WX-101" value="" style="endArrow=classic;html=1;exitX=0.5;exitY=1;exitDx=0;exitDy=0;entryX=0.5;entryY=0;entryDx=0;entryDy=0;" parent="WIyWlLk6GJQsqaUBKTNV-1" edge="1">
          <mxGeometry width="50" height="50" relative="1" as="geometry">
            <mxPoint x="390" y="523.5" as="sourcePoint" />
            <mxPoint x="390" y="549" as="targetPoint" />
            <Array as="points" />
          </mxGeometry>
        </mxCell>
        <mxCell id="9fOu5umkdslqVChfXTIq-5" value="" style="edgeStyle=orthogonalEdgeStyle;rounded=0;orthogonalLoop=1;jettySize=auto;html=1;entryX=0;entryY=0.5;entryDx=0;entryDy=0;exitX=1;exitY=0.5;exitDx=0;exitDy=0;" parent="WIyWlLk6GJQsqaUBKTNV-1" source="9fOu5umkdslqVChfXTIq-1" target="9fOu5umkdslqVChfXTIq-30" edge="1">
          <mxGeometry relative="1" as="geometry">
            <mxPoint x="539" y="631" as="targetPoint" />
            <Array as="points">
              <mxPoint x="510" y="630" />
              <mxPoint x="510" y="630" />
            </Array>
          </mxGeometry>
        </mxCell>
        <mxCell id="9fOu5umkdslqVChfXTIq-1" value="컴퓨터와 사용자의 패가 &lt;br&gt;1/3 또는 3/1임" style="rhombus;whiteSpace=wrap;html=1;" parent="WIyWlLk6GJQsqaUBKTNV-1" vertex="1">
          <mxGeometry x="280" y="603" width="220" height="53" as="geometry" />
        </mxCell>
        <mxCell id="9fOu5umkdslqVChfXTIq-3" value="No" style="text;html=1;strokeColor=none;fillColor=none;align=center;verticalAlign=middle;whiteSpace=wrap;rounded=0;" parent="WIyWlLk6GJQsqaUBKTNV-1" vertex="1">
          <mxGeometry x="390" y="743" width="40" height="20" as="geometry" />
        </mxCell>
        <mxCell id="9fOu5umkdslqVChfXTIq-38" value="" style="edgeStyle=orthogonalEdgeStyle;rounded=0;orthogonalLoop=1;jettySize=auto;html=1;" parent="WIyWlLk6GJQsqaUBKTNV-1" source="9fOu5umkdslqVChfXTIq-10" target="wrmkeq0CH1wcc1o3O_WX-3" edge="1">
          <mxGeometry relative="1" as="geometry" />
        </mxCell>
        <mxCell id="9fOu5umkdslqVChfXTIq-10" value="사용자 입력받기 (input)" style="shape=parallelogram;perimeter=parallelogramPerimeter;whiteSpace=wrap;html=1;fixedSize=1;" parent="WIyWlLk6GJQsqaUBKTNV-1" vertex="1">
          <mxGeometry x="189" y="170" width="160" height="30" as="geometry" />
        </mxCell>
        <mxCell id="9fOu5umkdslqVChfXTIq-12" value="Yes" style="text;html=1;strokeColor=none;fillColor=none;align=center;verticalAlign=middle;whiteSpace=wrap;rounded=0;" parent="WIyWlLk6GJQsqaUBKTNV-1" vertex="1">
          <mxGeometry x="490" y="629" width="40" height="21" as="geometry" />
        </mxCell>
        <mxCell id="9fOu5umkdslqVChfXTIq-14" value="No" style="text;html=1;strokeColor=none;fillColor=none;align=center;verticalAlign=middle;whiteSpace=wrap;rounded=0;" parent="WIyWlLk6GJQsqaUBKTNV-1" vertex="1">
          <mxGeometry x="390" y="654" width="40" height="20" as="geometry" />
        </mxCell>
        <mxCell id="9fOu5umkdslqVChfXTIq-16" value="" style="endArrow=classic;html=1;entryX=0.5;entryY=0;entryDx=0;entryDy=0;exitX=0.5;exitY=1;exitDx=0;exitDy=0;" parent="WIyWlLk6GJQsqaUBKTNV-1" edge="1">
          <mxGeometry width="50" height="50" relative="1" as="geometry">
            <mxPoint x="389" y="744" as="sourcePoint" />
            <mxPoint x="389.5" y="775" as="targetPoint" />
            <Array as="points" />
          </mxGeometry>
        </mxCell>
        <mxCell id="9fOu5umkdslqVChfXTIq-18" value="&quot;잘못된 입력&quot; 출력" style="shape=parallelogram;perimeter=parallelogramPerimeter;whiteSpace=wrap;html=1;fixedSize=1;" parent="WIyWlLk6GJQsqaUBKTNV-1" vertex="1">
          <mxGeometry x="71" y="219" width="149" height="30" as="geometry" />
        </mxCell>
        <mxCell id="9fOu5umkdslqVChfXTIq-30" value="1을 4로 만듦" style="rounded=1;whiteSpace=wrap;html=1;" parent="WIyWlLk6GJQsqaUBKTNV-1" vertex="1">
          <mxGeometry x="548" y="611.63" width="112" height="35.75" as="geometry" />
        </mxCell>
        <mxCell id="9fOu5umkdslqVChfXTIq-36" value="" style="endArrow=classic;html=1;exitX=0.5;exitY=1;exitDx=0;exitDy=0;entryX=0.5;entryY=0;entryDx=0;entryDy=0;" parent="WIyWlLk6GJQsqaUBKTNV-1" source="9fOu5umkdslqVChfXTIq-1" edge="1">
          <mxGeometry width="50" height="50" relative="1" as="geometry">
            <mxPoint x="400" y="441" as="sourcePoint" />
            <mxPoint x="390" y="683" as="targetPoint" />
            <Array as="points" />
          </mxGeometry>
        </mxCell>
        <mxCell id="9fOu5umkdslqVChfXTIq-45" value="사용자 패와 비교" style="shape=process;whiteSpace=wrap;html=1;backgroundOutline=1;" parent="WIyWlLk6GJQsqaUBKTNV-1" vertex="1">
          <mxGeometry x="299.5" y="548" width="180" height="31" as="geometry" />
        </mxCell>
        <mxCell id="9fOu5umkdslqVChfXTIq-46" value="사용자 패 변수 생성 &lt;br&gt;및 초기화" style="shape=process;whiteSpace=wrap;html=1;backgroundOutline=1;" parent="WIyWlLk6GJQsqaUBKTNV-1" vertex="1">
          <mxGeometry x="300.5" y="369" width="180" height="31" as="geometry" />
        </mxCell>
        <mxCell id="9fOu5umkdslqVChfXTIq-47" value="게임 시작" style="shape=process;whiteSpace=wrap;html=1;backgroundOutline=1;" parent="WIyWlLk6GJQsqaUBKTNV-1" vertex="1">
          <mxGeometry x="299.5" y="429" width="180" height="31" as="geometry" />
        </mxCell>
        <mxCell id="9fOu5umkdslqVChfXTIq-48" value="컴퓨터 패 변수 생성&lt;br&gt;및 임의의 수 할당" style="shape=process;whiteSpace=wrap;html=1;backgroundOutline=1;" parent="WIyWlLk6GJQsqaUBKTNV-1" vertex="1">
          <mxGeometry x="299.5" y="490" width="180" height="33.5" as="geometry" />
        </mxCell>
        <mxCell id="9fOu5umkdslqVChfXTIq-75" value="비김 출력" style="shape=parallelogram;perimeter=parallelogramPerimeter;whiteSpace=wrap;html=1;fixedSize=1;" parent="WIyWlLk6GJQsqaUBKTNV-1" vertex="1">
          <mxGeometry x="100" y="698" width="131" height="30" as="geometry" />
        </mxCell>
        <mxCell id="2BvWaV861vkguKEK1as5-0" value="승패 출력" style="shape=process;whiteSpace=wrap;html=1;backgroundOutline=1;" parent="WIyWlLk6GJQsqaUBKTNV-1" vertex="1">
          <mxGeometry x="299" y="840" width="181" height="31" as="geometry" />
        </mxCell>
        <mxCell id="rJDsSHnZVofqD30iJjr4-2" value="컴퓨터와 사용자의&lt;br&gt;패가 같음" style="rhombus;whiteSpace=wrap;html=1;" vertex="1" parent="WIyWlLk6GJQsqaUBKTNV-1">
          <mxGeometry x="279" y="683" width="220" height="60" as="geometry" />
        </mxCell>
        <mxCell id="rJDsSHnZVofqD30iJjr4-8" value="" style="edgeStyle=orthogonalEdgeStyle;rounded=0;orthogonalLoop=1;jettySize=auto;html=1;" edge="1" parent="WIyWlLk6GJQsqaUBKTNV-1" source="rJDsSHnZVofqD30iJjr4-5" target="2BvWaV861vkguKEK1as5-0">
          <mxGeometry relative="1" as="geometry" />
        </mxCell>
        <mxCell id="rJDsSHnZVofqD30iJjr4-5" value="값이 큰 쪽이 이김" style="rounded=1;whiteSpace=wrap;html=1;" vertex="1" parent="WIyWlLk6GJQsqaUBKTNV-1">
          <mxGeometry x="334" y="775" width="110" height="30" as="geometry" />
        </mxCell>
      </root>
    </mxGraphModel>
  </diagram>
</mxfile>
